<?xml version="1.0" encoding="UTF-8"?>
<svg xmlns="http://www.w3.org/2000/svg"
     xmlns:xlink="http://www.w3.org/1999/xlink"
     xmlns:gadfly="http://www.gadflyjl.org/ns"
     version="1.2"
     width="152.4mm" height="101.6mm" viewBox="0 0 152.4 101.6"
     stroke="none"
     fill="#000000"
     stroke-width="0.3"
     font-size="3.88"
>
<defs>
  <marker id="arrow" markerWidth="15" markerHeight="7" refX="5" refY="3.5" orient="auto" markerUnits="strokeWidth">
    <path d="M0,0 L15,3.5 L0,7 z" stroke="context-stroke" fill="context-stroke"/>
  </marker>
</defs>
<g class="plotroot yscalable" id="img-fc20790a-1">
  <g font-size="3.88" font-family="'PT Sans','Helvetica Neue','Helvetica',sans-serif" fill="#564A55" stroke="#000000" stroke-opacity="0.000" id="img-fc20790a-2">
    <g transform="translate(79.52,89.99)">
      <g class="primitive">
        <text text-anchor="middle" dy="0.6em">Bool Vector</text>
      </g>
    </g>
  </g>
  <g class="guide xlabels" font-size="2.82" font-family="'PT Sans Caption','Helvetica Neue','Helvetica',sans-serif" fill="#6C606B" id="img-fc20790a-3">
    <g transform="translate(39.92,53.09)">
      <g class="primitive">
        <text text-anchor="end" dy="0.35em" transform="rotate(-90,0, 0)">Vector{Bool}[[0], [0], [1]]</text>
      </g>
    </g>
    <g transform="translate(66.32,53.09)">
      <g class="primitive">
        <text text-anchor="end" dy="0.35em" transform="rotate(-90,0, 0)">Vector{Bool}[[0], [0], [0]]</text>
      </g>
    </g>
    <g transform="translate(92.72,53.09)">
      <g class="primitive">
        <text text-anchor="end" dy="0.35em" transform="rotate(-90,0, 0)">Vector{Bool}[[0], [1], [1]]</text>
      </g>
    </g>
    <g transform="translate(119.12,53.09)">
      <g class="primitive">
        <text text-anchor="end" dy="0.35em" transform="rotate(-90,0, 0)">Vector{Bool}[[0], [1], [0]]</text>
      </g>
    </g>
  </g>
  <g class="guide colorkey" id="img-fc20790a-4">
    <g fill="#4C404B" font-size="2.82" font-family="'PT Sans','Helvetica Neue','Helvetica',sans-serif" id="img-fc20790a-5">
      <g transform="translate(136.13,20.47)" id="img-fc20790a-6" class="color_Symbol_1">
        <g class="primitive">
          <text dy="0.35em">Symbol 1</text>
        </g>
      </g>
      <g transform="translate(136.13,24.1)" id="img-fc20790a-7" class="color_Symbol_2">
        <g class="primitive">
          <text dy="0.35em">Symbol 2</text>
        </g>
      </g>
      <g transform="translate(136.13,27.73)" id="img-fc20790a-8" class="color_Symbol_3">
        <g class="primitive">
          <text dy="0.35em">Symbol 3</text>
        </g>
      </g>
      <g transform="translate(136.13,31.35)" id="img-fc20790a-9" class="color_Symbol_4">
        <g class="primitive">
          <text dy="0.35em">Symbol 4</text>
        </g>
      </g>
      <g transform="translate(136.13,34.98)" id="img-fc20790a-10" class="color_Symbol_5">
        <g class="primitive">
          <text dy="0.35em">Symbol 5</text>
        </g>
      </g>
      <g transform="translate(136.13,38.61)" id="img-fc20790a-11" class="color_Symbol_6">
        <g class="primitive">
          <text dy="0.35em">Symbol 6</text>
        </g>
      </g>
      <g transform="translate(136.13,42.23)" id="img-fc20790a-12" class="color_Symbol_7">
        <g class="primitive">
          <text dy="0.35em">Symbol 7</text>
        </g>
      </g>
      <g transform="translate(136.13,45.86)" id="img-fc20790a-13" class="color_Symbol_8">
        <g class="primitive">
          <text dy="0.35em">Symbol 8</text>
        </g>
      </g>
    </g>
    <g fill-opacity="1" id="img-fc20790a-14">
      <g transform="translate(134.23,20.47)" id="img-fc20790a-15" class="color_Symbol_1" stroke="#FFFFFF" fill="#00BFFF">
        <path d="M-0.91,-0.91 L0.91,-0.91 0.91,0.91 -0.91,0.91  z" class="primitive"/>
      </g>
      <g transform="translate(134.23,24.1)" id="img-fc20790a-16" class="color_Symbol_2" stroke="#FFFFFF" fill="#D4CA3A">
        <path d="M-0.91,-0.91 L0.91,-0.91 0.91,0.91 -0.91,0.91  z" class="primitive"/>
      </g>
      <g transform="translate(134.23,27.73)" id="img-fc20790a-17" class="color_Symbol_3" stroke="#FFFFFF" fill="#FF6DAE">
        <path d="M-0.91,-0.91 L0.91,-0.91 0.91,0.91 -0.91,0.91  z" class="primitive"/>
      </g>
      <g transform="translate(134.23,31.35)" id="img-fc20790a-18" class="color_Symbol_4" stroke="#FFFFFF" fill="#00B78D">
        <path d="M-0.91,-0.91 L0.91,-0.91 0.91,0.91 -0.91,0.91  z" class="primitive"/>
      </g>
      <g transform="translate(134.23,34.98)" id="img-fc20790a-19" class="color_Symbol_5" stroke="#FFFFFF" fill="#BEA9FF">
        <path d="M-0.91,-0.91 L0.91,-0.91 0.91,0.91 -0.91,0.91  z" class="primitive"/>
      </g>
      <g transform="translate(134.23,38.61)" id="img-fc20790a-20" class="color_Symbol_6" stroke="#FFFFFF" fill="#FF6765">
        <path d="M-0.91,-0.91 L0.91,-0.91 0.91,0.91 -0.91,0.91  z" class="primitive"/>
      </g>
      <g transform="translate(134.23,42.23)" id="img-fc20790a-21" class="color_Symbol_7" stroke="#FFFFFF" fill="#C6C6C6">
        <path d="M-0.91,-0.91 L0.91,-0.91 0.91,0.91 -0.91,0.91  z" class="primitive"/>
      </g>
      <g transform="translate(134.23,45.86)" id="img-fc20790a-22" class="color_Symbol_8" stroke="#FFFFFF" fill="#63DF75">
        <path d="M-0.91,-0.91 L0.91,-0.91 0.91,0.91 -0.91,0.91  z" class="primitive"/>
      </g>
    </g>
    <g fill="#362A35" font-size="3.88" font-family="'PT Sans','Helvetica Neue','Helvetica',sans-serif" stroke="#000000" stroke-opacity="0.000" id="img-fc20790a-23">
      <g transform="translate(133.32,16.65)" id="img-fc20790a-24">
        <g class="primitive">
          <text dy="-0em">Source</text>
        </g>
      </g>
    </g>
  </g>
  <g clip-path="url(#img-fc20790a-25)">
    <g id="img-fc20790a-26">
      <g pointer-events="visible" stroke-width="0.3" fill="#000000" fill-opacity="0.000" stroke="#000000" stroke-opacity="0.000" class="guide background" id="img-fc20790a-27">
        <g transform="translate(79.52,31.35)" id="img-fc20790a-28">
          <path d="M-52.8,-20.74 L52.8,-20.74 52.8,20.74 -52.8,20.74  z" class="primitive"/>
        </g>
      </g>
      <g class="guide ygridlines xfixed" stroke-dasharray="0.5,0.5" stroke-width="0.2" stroke="#D0D0E0" id="img-fc20790a-29">
        <g transform="translate(79.52,50.1)" id="img-fc20790a-30">
          <path fill="none" d="M-52.8,0 L52.8,0 " class="primitive"/>
        </g>
        <g transform="translate(79.52,42.6)" id="img-fc20790a-31">
          <path fill="none" d="M-52.8,0 L52.8,0 " class="primitive"/>
        </g>
        <g transform="translate(79.52,35.1)" id="img-fc20790a-32">
          <path fill="none" d="M-52.8,0 L52.8,0 " class="primitive"/>
        </g>
        <g transform="translate(79.52,27.6)" id="img-fc20790a-33">
          <path fill="none" d="M-52.8,0 L52.8,0 " class="primitive"/>
        </g>
        <g transform="translate(79.52,20.11)" id="img-fc20790a-34">
          <path fill="none" d="M-52.8,0 L52.8,0 " class="primitive"/>
        </g>
        <g transform="translate(79.52,12.61)" id="img-fc20790a-35">
          <path fill="none" d="M-52.8,0 L52.8,0 " class="primitive"/>
        </g>
      </g>
      <g class="guide xgridlines yfixed" stroke-dasharray="0.5,0.5" stroke-width="0.2" stroke="#D0D0E0" id="img-fc20790a-36">
        <g transform="translate(53.12,31.35)" id="img-fc20790a-37">
          <path fill="none" d="M0,-20.74 L0,20.74 " class="primitive"/>
        </g>
        <g transform="translate(79.52,31.35)" id="img-fc20790a-38">
          <path fill="none" d="M0,-20.74 L0,20.74 " class="primitive"/>
        </g>
        <g transform="translate(105.92,31.35)" id="img-fc20790a-39">
          <path fill="none" d="M0,-20.74 L0,20.74 " class="primitive"/>
        </g>
      </g>
      <g class="plotpanel" id="img-fc20790a-40">
        <metadata>
          <boundingbox value="26.724999999999994mm 10.611666666666665mm 105.59499999999997mm 41.483333333333334mm"/>
          <unitbox value="0.5 105335.70475767007 4.0 -110671.40951534016"/>
        </metadata>
        <g shape-rendering="crispEdges" stroke-width="0.3" id="img-fc20790a-41">
          <g stroke="#000000" stroke-opacity="0.000" class="geometry" id="img-fc20790a-42">
            <g transform="translate(39.92,48.18)" id="img-fc20790a-43" fill="#63DF75">
              <path d="M-13.22,-1.92 L13.22,-1.92 13.22,1.92 -13.22,1.92  z" class="primitive"/>
            </g>
            <g transform="translate(66.32,48.15)" id="img-fc20790a-44" fill="#63DF75">
              <path d="M-13.22,-1.94 L13.22,-1.94 13.22,1.94 -13.22,1.94  z" class="primitive"/>
            </g>
            <g transform="translate(92.72,48.12)" id="img-fc20790a-45" fill="#63DF75">
              <path d="M-13.22,-1.97 L13.22,-1.97 13.22,1.97 -13.22,1.97  z" class="primitive"/>
            </g>
            <g transform="translate(119.12,48.12)" id="img-fc20790a-46" fill="#63DF75">
              <path d="M-13.22,-1.97 L13.22,-1.97 13.22,1.97 -13.22,1.97  z" class="primitive"/>
            </g>
            <g transform="translate(39.92,44.29)" id="img-fc20790a-47" fill="#C6C6C6">
              <path d="M-13.22,-1.97 L13.22,-1.97 13.22,1.97 -13.22,1.97  z" class="primitive"/>
            </g>
            <g transform="translate(66.32,44.26)" id="img-fc20790a-48" fill="#C6C6C6">
              <path d="M-13.22,-1.95 L13.22,-1.95 13.22,1.95 -13.22,1.95  z" class="primitive"/>
            </g>
            <g transform="translate(92.72,44.19)" id="img-fc20790a-49" fill="#C6C6C6">
              <path d="M-13.22,-1.96 L13.22,-1.96 13.22,1.96 -13.22,1.96  z" class="primitive"/>
            </g>
            <g transform="translate(119.12,44.19)" id="img-fc20790a-50" fill="#C6C6C6">
              <path d="M-13.22,-1.96 L13.22,-1.96 13.22,1.96 -13.22,1.96  z" class="primitive"/>
            </g>
            <g transform="translate(39.92,40.36)" id="img-fc20790a-51" fill="#FF6765">
              <path d="M-13.22,-1.96 L13.22,-1.96 13.22,1.96 -13.22,1.96  z" class="primitive"/>
            </g>
            <g transform="translate(66.32,40.39)" id="img-fc20790a-52" fill="#FF6765">
              <path d="M-13.22,-1.93 L13.22,-1.93 13.22,1.93 -13.22,1.93  z" class="primitive"/>
            </g>
            <g transform="translate(92.72,40.3)" id="img-fc20790a-53" fill="#FF6765">
              <path d="M-13.22,-1.92 L13.22,-1.92 13.22,1.92 -13.22,1.92  z" class="primitive"/>
            </g>
            <g transform="translate(119.12,40.26)" id="img-fc20790a-54" fill="#FF6765">
              <path d="M-13.22,-1.97 L13.22,-1.97 13.22,1.97 -13.22,1.97  z" class="primitive"/>
            </g>
            <g transform="translate(39.92,36.43)" id="img-fc20790a-55" fill="#BEA9FF">
              <path d="M-13.22,-1.98 L13.22,-1.98 13.22,1.98 -13.22,1.98  z" class="primitive"/>
            </g>
            <g transform="translate(66.32,36.52)" id="img-fc20790a-56" fill="#BEA9FF">
              <path d="M-13.22,-1.95 L13.22,-1.95 13.22,1.95 -13.22,1.95  z" class="primitive"/>
            </g>
            <g transform="translate(92.72,36.35)" id="img-fc20790a-57" fill="#BEA9FF">
              <path d="M-13.22,-2.03 L13.22,-2.03 13.22,2.03 -13.22,2.03  z" class="primitive"/>
            </g>
            <g transform="translate(119.12,36.3)" id="img-fc20790a-58" fill="#BEA9FF">
              <path d="M-13.22,-1.98 L13.22,-1.98 13.22,1.98 -13.22,1.98  z" class="primitive"/>
            </g>
            <g transform="translate(39.92,32.49)" id="img-fc20790a-59" fill="#00B78D">
              <path d="M-13.22,-1.96 L13.22,-1.96 13.22,1.96 -13.22,1.96  z" class="primitive"/>
            </g>
            <g transform="translate(66.32,32.61)" id="img-fc20790a-60" fill="#00B78D">
              <path d="M-13.22,-1.97 L13.22,-1.97 13.22,1.97 -13.22,1.97  z" class="primitive"/>
            </g>
            <g transform="translate(92.72,32.39)" id="img-fc20790a-61" fill="#00B78D">
              <path d="M-13.22,-1.93 L13.22,-1.93 13.22,1.93 -13.22,1.93  z" class="primitive"/>
            </g>
            <g transform="translate(119.12,32.31)" id="img-fc20790a-62" fill="#00B78D">
              <path d="M-13.22,-2.01 L13.22,-2.01 13.22,2.01 -13.22,2.01  z" class="primitive"/>
            </g>
            <g transform="translate(39.92,28.6)" id="img-fc20790a-63" fill="#FF6DAE">
              <path d="M-13.22,-1.93 L13.22,-1.93 13.22,1.93 -13.22,1.93  z" class="primitive"/>
            </g>
            <g transform="translate(66.32,28.75)" id="img-fc20790a-64" fill="#FF6DAE">
              <path d="M-13.22,-1.89 L13.22,-1.89 13.22,1.89 -13.22,1.89  z" class="primitive"/>
            </g>
            <g transform="translate(92.72,28.52)" id="img-fc20790a-65" fill="#FF6DAE">
              <path d="M-13.22,-1.94 L13.22,-1.94 13.22,1.94 -13.22,1.94  z" class="primitive"/>
            </g>
            <g transform="translate(119.12,28.34)" id="img-fc20790a-66" fill="#FF6DAE">
              <path d="M-13.22,-1.95 L13.22,-1.95 13.22,1.95 -13.22,1.95  z" class="primitive"/>
            </g>
            <g transform="translate(39.92,24.76)" id="img-fc20790a-67" fill="#D4CA3A">
              <path d="M-13.22,-1.92 L13.22,-1.92 13.22,1.92 -13.22,1.92  z" class="primitive"/>
            </g>
            <g transform="translate(66.32,24.92)" id="img-fc20790a-68" fill="#D4CA3A">
              <path d="M-13.22,-1.93 L13.22,-1.93 13.22,1.93 -13.22,1.93  z" class="primitive"/>
            </g>
            <g transform="translate(92.72,24.66)" id="img-fc20790a-69" fill="#D4CA3A">
              <path d="M-13.22,-1.92 L13.22,-1.92 13.22,1.92 -13.22,1.92  z" class="primitive"/>
            </g>
            <g transform="translate(119.12,24.46)" id="img-fc20790a-70" fill="#D4CA3A">
              <path d="M-13.22,-1.93 L13.22,-1.93 13.22,1.93 -13.22,1.93  z" class="primitive"/>
            </g>
            <g transform="translate(39.92,20.85)" id="img-fc20790a-71" fill="#00BFFF">
              <path d="M-13.22,-1.98 L13.22,-1.98 13.22,1.98 -13.22,1.98  z" class="primitive"/>
            </g>
            <g transform="translate(66.32,21.05)" id="img-fc20790a-72" fill="#00BFFF">
              <path d="M-13.22,-1.94 L13.22,-1.94 13.22,1.94 -13.22,1.94  z" class="primitive"/>
            </g>
            <g transform="translate(92.72,20.81)" id="img-fc20790a-73" fill="#00BFFF">
              <path d="M-13.22,-1.93 L13.22,-1.93 13.22,1.93 -13.22,1.93  z" class="primitive"/>
            </g>
            <g transform="translate(119.12,20.55)" id="img-fc20790a-74" fill="#00BFFF">
              <path d="M-13.22,-1.97 L13.22,-1.97 13.22,1.97 -13.22,1.97  z" class="primitive"/>
            </g>
          </g>
        </g>
      </g>
    </g>
  </g>
  <g class="guide ylabels" font-size="2.82" font-family="'PT Sans Caption','Helvetica Neue','Helvetica',sans-serif" fill="#6C606B" id="img-fc20790a-75">
    <g transform="translate(25.72,50.1)" id="img-fc20790a-76">
      <g class="primitive">
        <text text-anchor="end" dy="0.35em">0</text>
      </g>
    </g>
    <g transform="translate(25.72,42.6)" id="img-fc20790a-77">
      <g class="primitive">
        <text text-anchor="end" dy="0.35em">2.0×10⁴</text>
      </g>
    </g>
    <g transform="translate(25.72,35.1)" id="img-fc20790a-78">
      <g class="primitive">
        <text text-anchor="end" dy="0.35em">4.0×10⁴</text>
      </g>
    </g>
    <g transform="translate(25.72,27.6)" id="img-fc20790a-79">
      <g class="primitive">
        <text text-anchor="end" dy="0.35em">6.0×10⁴</text>
      </g>
    </g>
    <g transform="translate(25.72,20.11)" id="img-fc20790a-80">
      <g class="primitive">
        <text text-anchor="end" dy="0.35em">8.0×10⁴</text>
      </g>
    </g>
    <g transform="translate(25.72,12.61)" id="img-fc20790a-81">
      <g class="primitive">
        <text text-anchor="end" dy="0.35em">1.0×10⁵</text>
      </g>
    </g>
  </g>
  <g font-size="3.88" font-family="'PT Sans','Helvetica Neue','Helvetica',sans-serif" fill="#564A55" stroke="#000000" stroke-opacity="0.000" id="img-fc20790a-82">
    <g transform="translate(8.81,29.35)" id="img-fc20790a-83">
      <g class="primitive">
        <text text-anchor="middle" dy="0.35em" transform="rotate(-90,0, 2)">Count</text>
      </g>
    </g>
  </g>
  <g font-size="3.88" font-family="'PT Sans','Helvetica Neue','Helvetica',sans-serif" fill="#564A55" stroke="#000000" stroke-opacity="0.000" id="img-fc20790a-84">
    <g transform="translate(79.52,5)" id="img-fc20790a-85">
      <g class="primitive">
        <text text-anchor="middle" dy="0.6em">Helper Data occurrences by quantized bits</text>
      </g>
    </g>
  </g>
</g>
<defs>
  <clipPath id="img-fc20790a-25">
    <path d="M26.72,10.61 L132.32,10.61 132.32,52.1 26.72,52.1 " />
  </clipPath>
</defs>
</svg>
