<?xml version="1.0" encoding="UTF-8"?>
<svg xmlns="http://www.w3.org/2000/svg"
     xmlns:xlink="http://www.w3.org/1999/xlink"
     xmlns:gadfly="http://www.gadflyjl.org/ns"
     version="1.2"
     width="152.4mm" height="101.6mm" viewBox="0 0 152.4 101.6"
     stroke="none"
     fill="#000000"
     stroke-width="0.3"
     font-size="3.88"
>
<defs>
  <marker id="arrow" markerWidth="15" markerHeight="7" refX="5" refY="3.5" orient="auto" markerUnits="strokeWidth">
    <path d="M0,0 L15,3.5 L0,7 z" stroke="context-stroke" fill="context-stroke"/>
  </marker>
</defs>
<g class="plotroot yscalable" id="img-dfec6c5e-1">
  <g font-size="3.88" font-family="'PT Sans','Helvetica Neue','Helvetica',sans-serif" fill="#564A55" stroke="#000000" stroke-opacity="0.000" id="img-dfec6c5e-2">
    <g transform="translate(79.52,89.99)">
      <g class="primitive">
        <text text-anchor="middle" dy="0.6em">Bool Vector</text>
      </g>
    </g>
  </g>
  <g class="guide xlabels" font-size="2.82" font-family="'PT Sans Caption','Helvetica Neue','Helvetica',sans-serif" fill="#6C606B" id="img-dfec6c5e-3">
    <g transform="translate(33.32,43.76)">
      <g class="primitive">
        <text text-anchor="end" dy="0.35em" transform="rotate(-90,0, 0)">Vector{Bool}[[0, 0], [0, 0], [0, 0]]</text>
      </g>
    </g>
    <g transform="translate(46.52,43.76)">
      <g class="primitive">
        <text text-anchor="end" dy="0.35em" transform="rotate(-90,0, 0)">Vector{Bool}[[0, 0], [0, 0], [1, 1]]</text>
      </g>
    </g>
    <g transform="translate(59.72,43.76)">
      <g class="primitive">
        <text text-anchor="end" dy="0.35em" transform="rotate(-90,0, 0)">Vector{Bool}[[0, 0], [1, 1], [0, 0]]</text>
      </g>
    </g>
    <g transform="translate(72.92,43.76)">
      <g class="primitive">
        <text text-anchor="end" dy="0.35em" transform="rotate(-90,0, 0)">Vector{Bool}[[0, 0], [1, 1], [1, 1]]</text>
      </g>
    </g>
    <g transform="translate(86.12,43.76)">
      <g class="primitive">
        <text text-anchor="end" dy="0.35em" transform="rotate(-90,0, 0)">Vector{Bool}[[0, 1], [1, 0], [1, 0]]</text>
      </g>
    </g>
    <g transform="translate(99.32,43.76)">
      <g class="primitive">
        <text text-anchor="end" dy="0.35em" transform="rotate(-90,0, 0)">Vector{Bool}[[0, 1], [1, 0], [0, 1]]</text>
      </g>
    </g>
    <g transform="translate(112.52,43.76)">
      <g class="primitive">
        <text text-anchor="end" dy="0.35em" transform="rotate(-90,0, 0)">Vector{Bool}[[0, 1], [0, 1], [1, 0]]</text>
      </g>
    </g>
    <g transform="translate(125.72,43.76)">
      <g class="primitive">
        <text text-anchor="end" dy="0.35em" transform="rotate(-90,0, 0)">Vector{Bool}[[0, 1], [0, 1], [0, 1]]</text>
      </g>
    </g>
  </g>
  <g class="guide colorkey" id="img-dfec6c5e-4">
    <g fill="#4C404B" font-size="2.82" font-family="'PT Sans','Helvetica Neue','Helvetica',sans-serif" id="img-dfec6c5e-5">
      <g transform="translate(136.13,23.06)" id="img-dfec6c5e-6" class="color_Symbol_1">
        <g class="primitive">
          <text dy="0.35em">Symbol 1</text>
        </g>
      </g>
      <g transform="translate(136.13,26.68)" id="img-dfec6c5e-7" class="color_Symbol_2">
        <g class="primitive">
          <text dy="0.35em">Symbol 2</text>
        </g>
      </g>
      <g transform="translate(136.13,30.31)" id="img-dfec6c5e-8" class="color_Symbol_3">
        <g class="primitive">
          <text dy="0.35em">Symbol 3</text>
        </g>
      </g>
      <g transform="translate(136.13,33.94)" id="img-dfec6c5e-9" class="color_Symbol_4">
        <g class="primitive">
          <text dy="0.35em">Symbol 4</text>
        </g>
      </g>
    </g>
    <g fill-opacity="1" id="img-dfec6c5e-10">
      <g transform="translate(134.23,23.06)" id="img-dfec6c5e-11" class="color_Symbol_1" stroke="#FFFFFF" fill="#00BFFF">
        <path d="M-0.91,-0.91 L0.91,-0.91 0.91,0.91 -0.91,0.91  z" class="primitive"/>
      </g>
      <g transform="translate(134.23,26.68)" id="img-dfec6c5e-12" class="color_Symbol_2" stroke="#FFFFFF" fill="#D4CA3A">
        <path d="M-0.91,-0.91 L0.91,-0.91 0.91,0.91 -0.91,0.91  z" class="primitive"/>
      </g>
      <g transform="translate(134.23,30.31)" id="img-dfec6c5e-13" class="color_Symbol_3" stroke="#FFFFFF" fill="#FF6DAE">
        <path d="M-0.91,-0.91 L0.91,-0.91 0.91,0.91 -0.91,0.91  z" class="primitive"/>
      </g>
      <g transform="translate(134.23,33.94)" id="img-dfec6c5e-14" class="color_Symbol_4" stroke="#FFFFFF" fill="#00B78D">
        <path d="M-0.91,-0.91 L0.91,-0.91 0.91,0.91 -0.91,0.91  z" class="primitive"/>
      </g>
    </g>
    <g fill="#362A35" font-size="3.88" font-family="'PT Sans','Helvetica Neue','Helvetica',sans-serif" stroke="#000000" stroke-opacity="0.000" id="img-dfec6c5e-15">
      <g transform="translate(133.32,19.24)" id="img-dfec6c5e-16">
        <g class="primitive">
          <text dy="-0em">Source</text>
        </g>
      </g>
    </g>
  </g>
  <g clip-path="url(#img-dfec6c5e-17)">
    <g id="img-dfec6c5e-18">
      <g pointer-events="visible" stroke-width="0.3" fill="#000000" fill-opacity="0.000" stroke="#000000" stroke-opacity="0.000" class="guide background" id="img-dfec6c5e-19">
        <g transform="translate(79.52,26.68)" id="img-dfec6c5e-20">
          <path d="M-52.8,-16.07 L52.8,-16.07 52.8,16.07 -52.8,16.07  z" class="primitive"/>
        </g>
      </g>
      <g class="guide ygridlines xfixed" stroke-dasharray="0.5,0.5" stroke-width="0.2" stroke="#D0D0E0" id="img-dfec6c5e-21">
        <g transform="translate(79.52,40.75)" id="img-dfec6c5e-22">
          <path fill="none" d="M-52.8,0 L52.8,0 " class="primitive"/>
        </g>
        <g transform="translate(79.52,35.13)" id="img-dfec6c5e-23">
          <path fill="none" d="M-52.8,0 L52.8,0 " class="primitive"/>
        </g>
        <g transform="translate(79.52,29.5)" id="img-dfec6c5e-24">
          <path fill="none" d="M-52.8,0 L52.8,0 " class="primitive"/>
        </g>
        <g transform="translate(79.52,23.87)" id="img-dfec6c5e-25">
          <path fill="none" d="M-52.8,0 L52.8,0 " class="primitive"/>
        </g>
        <g transform="translate(79.52,18.24)" id="img-dfec6c5e-26">
          <path fill="none" d="M-52.8,0 L52.8,0 " class="primitive"/>
        </g>
        <g transform="translate(79.52,12.61)" id="img-dfec6c5e-27">
          <path fill="none" d="M-52.8,0 L52.8,0 " class="primitive"/>
        </g>
      </g>
      <g class="guide xgridlines yfixed" stroke-dasharray="0.5,0.5" stroke-width="0.2" stroke="#D0D0E0" id="img-dfec6c5e-28">
        <g transform="translate(39.92,26.68)" id="img-dfec6c5e-29">
          <path fill="none" d="M0,-16.07 L0,16.07 " class="primitive"/>
        </g>
        <g transform="translate(53.12,26.68)" id="img-dfec6c5e-30">
          <path fill="none" d="M0,-16.07 L0,16.07 " class="primitive"/>
        </g>
        <g transform="translate(66.32,26.68)" id="img-dfec6c5e-31">
          <path fill="none" d="M0,-16.07 L0,16.07 " class="primitive"/>
        </g>
        <g transform="translate(79.52,26.68)" id="img-dfec6c5e-32">
          <path fill="none" d="M0,-16.07 L0,16.07 " class="primitive"/>
        </g>
        <g transform="translate(92.72,26.68)" id="img-dfec6c5e-33">
          <path fill="none" d="M0,-16.07 L0,16.07 " class="primitive"/>
        </g>
        <g transform="translate(105.92,26.68)" id="img-dfec6c5e-34">
          <path fill="none" d="M0,-16.07 L0,16.07 " class="primitive"/>
        </g>
        <g transform="translate(119.12,26.68)" id="img-dfec6c5e-35">
          <path fill="none" d="M0,-16.07 L0,16.07 " class="primitive"/>
        </g>
      </g>
      <g class="plotpanel" id="img-dfec6c5e-36">
        <metadata>
          <boundingbox value="26.724999999999994mm 10.611666666666665mm 105.59499999999997mm 32.14333333333334mm"/>
          <unitbox value="0.5 53553.23936989222 8.0 -57106.47873978444"/>
        </metadata>
        <g shape-rendering="crispEdges" stroke-width="0.3" id="img-dfec6c5e-37">
          <g stroke="#000000" stroke-opacity="0.000" class="geometry" id="img-dfec6c5e-38">
            <g transform="translate(33.32,34.81)" id="img-dfec6c5e-39" fill="#00B78D">
              <path d="M-6.62,-5.94 L6.62,-5.94 6.62,5.94 -6.62,5.94  z" class="primitive"/>
            </g>
            <g transform="translate(59.72,34.96)" id="img-dfec6c5e-40" fill="#00B78D">
              <path d="M-6.62,-5.79 L6.62,-5.79 6.62,5.79 -6.62,5.79  z" class="primitive"/>
            </g>
            <g transform="translate(46.52,34.93)" id="img-dfec6c5e-41" fill="#00B78D">
              <path d="M-6.62,-5.83 L6.62,-5.83 6.62,5.83 -6.62,5.83  z" class="primitive"/>
            </g>
            <g transform="translate(72.92,34.88)" id="img-dfec6c5e-42" fill="#00B78D">
              <path d="M-6.62,-5.88 L6.62,-5.88 6.62,5.88 -6.62,5.88  z" class="primitive"/>
            </g>
            <g transform="translate(86.12,34.93)" id="img-dfec6c5e-43" fill="#FF6DAE">
              <path d="M-6.62,-5.82 L6.62,-5.82 6.62,5.82 -6.62,5.82  z" class="primitive"/>
            </g>
            <g transform="translate(99.32,34.86)" id="img-dfec6c5e-44" fill="#FF6DAE">
              <path d="M-6.62,-5.9 L6.62,-5.9 6.62,5.9 -6.62,5.9  z" class="primitive"/>
            </g>
            <g transform="translate(112.52,34.91)" id="img-dfec6c5e-45" fill="#FF6DAE">
              <path d="M-6.62,-5.84 L6.62,-5.84 6.62,5.84 -6.62,5.84  z" class="primitive"/>
            </g>
            <g transform="translate(125.72,34.87)" id="img-dfec6c5e-46" fill="#FF6DAE">
              <path d="M-6.62,-5.88 L6.62,-5.88 6.62,5.88 -6.62,5.88  z" class="primitive"/>
            </g>
            <g transform="translate(86.12,23.26)" id="img-dfec6c5e-47" fill="#D4CA3A">
              <path d="M-6.62,-5.85 L6.62,-5.85 6.62,5.85 -6.62,5.85  z" class="primitive"/>
            </g>
            <g transform="translate(99.32,23.11)" id="img-dfec6c5e-48" fill="#D4CA3A">
              <path d="M-6.62,-5.85 L6.62,-5.85 6.62,5.85 -6.62,5.85  z" class="primitive"/>
            </g>
            <g transform="translate(112.52,23.16)" id="img-dfec6c5e-49" fill="#D4CA3A">
              <path d="M-6.62,-5.91 L6.62,-5.91 6.62,5.91 -6.62,5.91  z" class="primitive"/>
            </g>
            <g transform="translate(125.72,23.15)" id="img-dfec6c5e-50" fill="#D4CA3A">
              <path d="M-6.62,-5.85 L6.62,-5.85 6.62,5.85 -6.62,5.85  z" class="primitive"/>
            </g>
            <g transform="translate(33.32,22.95)" id="img-dfec6c5e-51" fill="#00BFFF">
              <path d="M-6.62,-5.91 L6.62,-5.91 6.62,5.91 -6.62,5.91  z" class="primitive"/>
            </g>
            <g transform="translate(46.52,23.28)" id="img-dfec6c5e-52" fill="#00BFFF">
              <path d="M-6.62,-5.82 L6.62,-5.82 6.62,5.82 -6.62,5.82  z" class="primitive"/>
            </g>
            <g transform="translate(59.72,23.35)" id="img-dfec6c5e-53" fill="#00BFFF">
              <path d="M-6.62,-5.82 L6.62,-5.82 6.62,5.82 -6.62,5.82  z" class="primitive"/>
            </g>
            <g transform="translate(72.92,23.09)" id="img-dfec6c5e-54" fill="#00BFFF">
              <path d="M-6.62,-5.91 L6.62,-5.91 6.62,5.91 -6.62,5.91  z" class="primitive"/>
            </g>
          </g>
        </g>
      </g>
    </g>
  </g>
  <g class="guide ylabels" font-size="2.82" font-family="'PT Sans Caption','Helvetica Neue','Helvetica',sans-serif" fill="#6C606B" id="img-dfec6c5e-55">
    <g transform="translate(25.72,40.75)" id="img-dfec6c5e-56">
      <g class="primitive">
        <text text-anchor="end" dy="0.35em">0</text>
      </g>
    </g>
    <g transform="translate(25.72,35.13)" id="img-dfec6c5e-57">
      <g class="primitive">
        <text text-anchor="end" dy="0.35em">1.0×10⁴</text>
      </g>
    </g>
    <g transform="translate(25.72,29.5)" id="img-dfec6c5e-58">
      <g class="primitive">
        <text text-anchor="end" dy="0.35em">2.0×10⁴</text>
      </g>
    </g>
    <g transform="translate(25.72,23.87)" id="img-dfec6c5e-59">
      <g class="primitive">
        <text text-anchor="end" dy="0.35em">3.0×10⁴</text>
      </g>
    </g>
    <g transform="translate(25.72,18.24)" id="img-dfec6c5e-60">
      <g class="primitive">
        <text text-anchor="end" dy="0.35em">4.0×10⁴</text>
      </g>
    </g>
    <g transform="translate(25.72,12.61)" id="img-dfec6c5e-61">
      <g class="primitive">
        <text text-anchor="end" dy="0.35em">5.0×10⁴</text>
      </g>
    </g>
  </g>
  <g font-size="3.88" font-family="'PT Sans','Helvetica Neue','Helvetica',sans-serif" fill="#564A55" stroke="#000000" stroke-opacity="0.000" id="img-dfec6c5e-62">
    <g transform="translate(8.81,24.68)" id="img-dfec6c5e-63">
      <g class="primitive">
        <text text-anchor="middle" dy="0.35em" transform="rotate(-90,0, 2)">Count</text>
      </g>
    </g>
  </g>
  <g font-size="3.88" font-family="'PT Sans','Helvetica Neue','Helvetica',sans-serif" fill="#564A55" stroke="#000000" stroke-opacity="0.000" id="img-dfec6c5e-64">
    <g transform="translate(79.52,5)" id="img-dfec6c5e-65">
      <g class="primitive">
        <text text-anchor="middle" dy="0.6em">Helper Data occurrences by quantized bits</text>
      </g>
    </g>
  </g>
</g>
<defs>
  <clipPath id="img-dfec6c5e-17">
    <path d="M26.72,10.61 L132.32,10.61 132.32,42.76 26.72,42.76 " />
  </clipPath>
</defs>
</svg>
